<svg id="Capa_1" enable-background="new 0 0 512 512" height="512" viewBox="0 0 512 512" width="512" xmlns="http://www.w3.org/2000/svg"><g><path d="m399 134.333v-51.638l32-21.333v-61.362h-71.667c-35.841 0-65 29.159-65 65v26.667h-76.666v-26.667c0-35.841-29.159-65-65-65h-71.667v61.361l32 21.333v51.639h-113v15c0 57.216 43.516 104.454 99.188 110.371v78.031l45.812 37.817v25.448c0 61.206 49.794 111 111 111s111-49.794 111-111v-25.448l45.812-37.817v-78.031c55.672-5.916 99.188-53.155 99.188-110.37v-15h-113zm-62 266.667c0 44.664-36.336 81-81 81-44.663 0-81-36.336-81-81v-39.585l-45.812-37.817v-159.265h43.479c24.03 0 43.721-18.934 44.94-42.667h76.787c1.218 23.733 20.909 42.667 44.94 42.667h43.479v159.265l-45.813 37.817zm-226-355.695v-15.305h41.667c19.299 0 35 15.701 35 35v54.333c0 8.271-6.729 15-15 15h-29.667v-67.694zm-11.812 184.154c-34.156-5.014-61.456-31.413-67.796-65.126h67.796zm225.145-110.126v-54.333c0-19.299 15.701-35 35-35h41.667v15.305l-32 21.333v67.694h-29.667c-8.271.001-15-6.728-15-14.999zm88.479 45h67.796c-6.34 33.712-33.64 60.112-67.796 65.126z"/><path d="m166.333 224h30v53.333h-30z"/><path d="m315.667 224h30v53.333h-30z"/><path d="m256 405.454-21.773-21.773-21.213 21.213 42.986 42.986 42.985-42.986-21.212-21.213z"/></g></svg>